# Blender 5.1.1
# www.blender.org
o Chicken.003
v -2.000000 9.999999 -3.000001
v -2.000000 9.999999 -5.000001
v 2.000000 9.999999 -3.000001
v -2.000000 11.999999 -3.000001
v 2.000000 11.999999 -3.000001
v -2.000000 11.999999 -5.000001
v 2.000000 11.999999 -5.000001
v 2.000000 9.999999 -5.000001
vn -1.0000 -0.0000 -0.0000
vn -0.0000 -1.0000 -0.0000
vn -0.0000 -0.0000 1.0000
vn -0.0000 1.0000 -0.0000
vn -0.0000 -0.0000 -1.0000
vn 1.0000 -0.0000 -0.0000
vt 0.218839 0.968762
vt 0.218839 0.937500
vt 0.250000 0.937500
vt 0.250000 0.968762
vt 0.400000 0.937500
vt 0.400000 0.968762
vt 0.343781 0.968762
vt 0.343781 0.937500
vt 0.312500 1.000000
vt 0.375000 1.000000
vt 0.375000 0.968762
vt 0.312500 0.968762
vt 0.312500 0.937500
vt 0.250000 1.000000
s 1
f 2/1/1 1/2/1 4/3/1 6/4/1
f 1/5/2 2/6/2 8/7/2 3/8/2
f 1/9/3 3/10/3 5/11/3 4/12/3
f 4/3/4 5/13/4 7/12/4 6/4/4
f 8/9/5 2/14/5 6/4/5 7/12/5
f 3/8/6 8/7/6 7/12/6 5/13/6
