# Blender 5.1.1
# www.blender.org
o Chicken.007
v 1.000000 4.000000 8.000000
v 1.000000 4.000000 3.000000
v 2.000000 4.000000 8.000000
v 1.000000 6.000001 8.000000
v -0.000000 4.000000 8.000000
v -0.000000 6.000001 7.999999
v 2.000000 6.000001 8.000000
v 1.000000 7.000001 7.999999
v 2.000000 7.000001 7.999999
v 3.000000 6.000001 7.999999
v 3.000000 4.000000 8.000000
v 2.000000 4.000000 3.000000
vn -0.0000 1.0000 -0.0000
vn -0.0000 -0.0000 -1.0000
vt 0.562500 0.875000
vt 0.575000 0.875000
vt 0.575000 0.950000
vt 0.562500 0.950000
vt 0.531222 0.953167
vt 0.515611 0.953167
vt 0.515611 0.984389
vt 0.531222 0.984389
vt 0.500000 0.953167
vt 0.500000 0.984389
vt 0.515611 1.000000
vt 0.531222 1.000000
vt 0.546833 0.984389
vt 0.546833 0.953167
s 1
f 1/1/1 3/2/1 12/3/1 2/4/1
f 3/5/2 1/6/2 4/7/2 7/8/2
f 4/7/2 1/6/2 5/9/2 6/10/2
f 7/8/2 4/7/2 8/11/2 9/12/2
f 3/5/2 7/8/2 10/13/2 11/14/2
