# Blender 5.1.1
# www.blender.org
o Chicken.002
v -1.000000 9.999999 -1.000001
v -1.000000 9.999999 -3.000001
v 1.000000 9.999999 -1.000001
v -1.000000 10.999999 -1.000001
v 1.000000 10.999999 -1.000001
v -1.000000 10.999999 -3.000001
v 1.000000 10.999999 -3.000001
v 1.000000 9.999999 -3.000001
vn -1.0000 -0.0000 -0.0000
vn -0.0000 -0.0000 1.0000
vn -0.0000 1.0000 -0.0000
vn 1.0000 -0.0000 -0.0000
vt 0.218678 0.906269
vt 0.218678 0.875000
vt 0.250000 0.875000
vt 0.250000 0.906269
vt 0.250000 0.937500
vt 0.312500 0.937500
vt 0.312500 0.906269
vt 0.312500 0.875000
vt 0.343515 0.875000
vt 0.343515 0.906269
s 1
f 2/1/1 1/2/1 4/3/1 6/4/1
f 1/5/2 3/6/2 5/7/2 4/4/2
f 4/3/3 5/8/3 7/7/3 6/4/3
f 3/9/4 8/10/4 7/7/4 5/8/4
